# xmcd
#
# Track frame offsets:
#	150
#	17135
#	33513
#	51545
#	67850
#	86370
#	101080
#	116520
#	130629
#	149664
#	169099
#	188601
#	204989
#	221339
#
# Disc length: 3204 seconds
#
# Revision: 0
# Processed by: cddbd v1.4PL0 Copyright (c) Steve Scherf et al.
# Submitted via: EasyCDDAExtractor 4.6.9.1
#
DISCID=c10c820e
DTITLE=Zeze di Camargo and Luciano - Bailao do Zeze
DYEAR=1900
DGENRE=Sertanejo
TTITLE0=Vem Ficar Comigo
TTITLE1=Vou Levar Voce
TTITLE2=Voce vai Ver
TTITLE3=Como um Anjo
TTITLE4=Pior é te Perder
TTITLE5=Sabor de Pecado
TTITLE6=Do Jeito que a Mocada Gosta
TTITLE7=Por Amor te Deixo Ir
TTITLE8=Fim de Festa
TTITLE9=Serafim e seus Filhos
TTITLE10=Menina Veneno
TTITLE11=Tarde Demais
TTITLE12=Vida, Viola e Violeiro
TTITLE13=Ta Escrito em Meu Olhar
EXTD=
EXTT0=
EXTT1=
EXTT2=
EXTT3=
EXTT4=
EXTT5=
EXTT6=
EXTT7=
EXTT8=
EXTT9=
EXTT10=
EXTT11=
EXTT12=
EXTT13=
PLAYORDER=
